<?xml version="1.0" encoding="utf-8"?>
<!-- Generator: Adobe Illustrator 23.0.1, SVG Export Plug-In . SVG Version: 6.00 Build 0)  -->
<svg version="1.1" id="Layer_1" xmlns="http://www.w3.org/2000/svg" xmlns:xlink="http://www.w3.org/1999/xlink" x="0px" y="0px"
	 viewBox="0 0 512 512" style="enable-background:new 0 0 512 512;" xml:space="preserve">
<style type="text/css">
	.st0{fill:#21253E;}
	.st1{fill:#2F3556;}
	.st2{fill:#493149;}
	.st3{fill:#AF4B00;}
	.st4{fill:#7F3706;}
	.st5{fill:#D36C18;}
	.st6{fill:#44B5F1;}
	.st7{fill:#FFA683;}
	.st8{fill:#EFEBDC;}
	.st9{fill:#FFFFFF;}
</style>
<g>
	<g>
		<g>
			<path class="st0" d="M512,256c0,56.5-18.3,108.7-49.3,151.1c-46.6,63.6-121.8,39.5-206.7,39.5S95.9,470.7,49.3,407.1
				C18.3,364.7,0,312.5,0,256C0,114.6,114.6,0,256,0S512,114.6,512,256z"/>
		</g>
	</g>
	<path class="st1" d="M256,446.6c84.9,0,160.1,24.1,206.7-39.5c31-42.3,49.3-94.6,49.3-151.1c0-16.6-1.6-32.9-4.6-48.6L371.7,71.7
		l-13.3-1.3l-32.2-31.7L109.5,200l22,21.9l-2.6,33.2l36.1,36.6c1,4.9,1.4,5.1,1.4,5.1l53.2,53.2c0.6,1-170.4,57.1-170.4,57.1
		C95.9,470.7,171.1,446.6,256,446.6z"/>
	<g>
		<path class="st2" d="M268.3,23.5l8.2,7.5c4.9,4.5,11.8,5.9,18.1,3.8l10.6-3.5c9-3,18.7,1.4,22.5,10l4.5,10.2
			c2.6,6.1,8.4,10.2,15,10.9l11.1,1.1c9.4,0.9,16.6,8.9,16.5,18.3L374.6,93c-0.1,6.6,3.5,12.8,9.3,16l9.7,5.5
			c8.2,4.7,11.5,14.8,7.6,23.4l-4.6,10.1c-2.7,6-2,13.1,1.9,18.4l6.6,9c5.6,7.6,4.5,18.2-2.6,24.5l-8.3,7.4
			c-5,4.4-7.1,11.1-5.7,17.6l2.4,10.9c2,9.2-3.3,18.5-12.3,21.3l-10.6,3.4c-6.3,2-11.1,7.3-12.4,13.8l-2.2,10.9
			c-1.9,9.3-10.5,15.5-19.9,14.5l-11.1-1.3c-6.6-0.7-13,2.1-16.9,7.5L299,315c-5.5,7.7-16,9.9-24.1,5.1l-9.6-5.6
			c-5.7-3.4-12.8-3.4-18.5,0l-9.6,5.6c-8.1,4.8-18.6,2.6-24.1-5.1l-6.5-9.1c-3.9-5.4-10.3-8.3-16.9-7.5l-11.1,1.3
			c-9.4,1.1-18-5.2-19.9-14.5l-2.2-10.9c-1.3-6.5-6.1-11.8-12.4-13.8l-10.6-3.4c-9-2.9-14.4-12.1-12.3-21.3l2.4-10.9
			c1.4-6.5-0.8-13.2-5.7-17.6l-8.3-7.4c-7.1-6.3-8.2-16.9-2.6-24.5l6.6-9c3.9-5.3,4.7-12.4,1.9-18.4l-4.6-10.1
			c-3.9-8.6-0.6-18.8,7.6-23.4l9.7-5.5c5.8-3.3,9.3-9.4,9.3-16l-0.1-11.1c-0.1-9.5,7.1-17.4,16.5-18.3l11.1-1.1
			c6.6-0.6,12.3-4.8,15-10.9l4.5-10.2c3.8-8.7,13.5-13,22.5-10l10.6,3.5c6.3,2.1,13.2,0.6,18.1-3.8l8.2-7.5
			C250.7,17.2,261.3,17.2,268.3,23.5L268.3,23.5z"/>
		<path class="st3" d="M200,260.5H312v118.8H200V260.5z"/>
		<path class="st4" d="M256,260.5h56v118.8h-56V260.5z"/>
		<path class="st5" d="M134.6,332.3h242.9v114.3H134.6L134.6,332.3z"/>
		<path class="st3" d="M256,332.3h121.4v114.3H256V332.3z"/>
		<path class="st6" d="M462.7,407.1C416.1,470.7,340.9,512,256,512S95.9,470.7,49.3,407.1c1.3-41.5,35.3-74.8,77.2-74.8H200v9.2
			c0,30.9,25.1,56,56,56c15.5,0,29.5-6.3,39.6-16.4s16.4-24.1,16.4-39.6v-9.2h73.5C427.4,332.3,461.4,365.5,462.7,407.1z"/>
		<path class="st7" d="M349.6,151.1c-4-60-52.5-82.2-93.6-82.2s-89.7,22.2-93.6,82.2c-10.6,2.1-18.2,16-17,27.3l1.8,25.6
			c1.2,11.8,11.6,20.5,23.1,19.2l2-0.2c23.5,63.1,60.3,69.6,83.7,73.3c23.4-3.7,60.2-10.3,83.7-73.3l2,0.2
			c11.5,1.3,21.9-7.4,23.1-19.2l1.8-25.6C367.8,167.1,360.2,153.2,349.6,151.1L349.6,151.1z"/>
		<path class="st2" d="M294.1,54.6l-0.3-0.1c-24.1-10.3-51.5-10.3-75.6,0l-0.3,0.1c-28.7,12.3-50,37.8-56.1,68.5
			c-2,9.9-2.3,19.8,0.6,28.1l1.3,35.4h18.8l7-37.5c1.4-7.3,9.7-10.9,16.1-7c4.7,3,11,1.9,14.4-2.6l8.2-10.6
			c4.9-6.3,14.5-5.4,18.2,1.6c4.1,7.7,15.2,7.7,19.3,0c3.7-7,13.4-7.8,18.2-1.6l8.2,10.6c3.4,4.4,9.6,5.5,14.4,2.6
			c6.3-3.9,14.6-0.3,16.1,7l7,37.5h18.8l1.3-35.4c2.9-8.3,2.6-18.2,0.6-28.1C344.2,92.4,322.8,66.9,294.1,54.6L294.1,54.6z"/>
		<path class="st8" d="M275.8,204.5c-11.4-9.7-28.2-9.7-39.7,0c-12.7,10.8-28.8,17.1-45.5,17.8l-18.4,0.7l1.2,7.4
			c6.7,40.3,41.6,69.9,82.5,69.9c41.8-2.3,76.4-33.3,83.2-74.6l0.4-2.7l-18.4-0.7C304.6,221.6,288.6,215.4,275.8,204.5L275.8,204.5z
			"/>
		<path class="st9" d="M275.8,204.5c-11.4-9.7-28.2-9.7-39.7,0c-12.7,10.8-28.8,17.1-45.5,17.8l-18.4,0.7l1.2,7.4
			c6.7,40.3,41.6,69.9,82.5,69.9c41.8-2.3,76.4-33.3,83.2-74.6l0.4-2.7l-18.4-0.7C304.6,221.6,288.6,215.4,275.8,204.5L275.8,204.5z
			"/>
	</g>
</g>
</svg>
