<?xml version="1.0" encoding="utf-8"?>
<!-- Generator: Adobe Illustrator 23.0.1, SVG Export Plug-In . SVG Version: 6.00 Build 0)  -->
<svg version="1.1" id="Layer_1" xmlns="http://www.w3.org/2000/svg" xmlns:xlink="http://www.w3.org/1999/xlink" x="0px" y="0px"
	 viewBox="0 0 1600 490" style="enable-background:new 0 0 1600 490;" xml:space="preserve">
<style type="text/css">
	.st0{fill:#44B5F1;}
	.st1{fill:#0CF1B3;}
</style>
<g>
	<g>
		<g>
			<path class="st0" d="M576.3,257c-0.3,1.3-0.6,2.4-0.8,3.4c-2,13.5-4,27-5.9,40.5c-2.2,15.2-4.4,30.4-6.7,45.6
				c-1.1,7.4-3.7,9.6-11.3,9.6c-14.4,0-28.8,0-43.3,0c-1.1,0-2.2,0-3.3-0.2c-5.4-0.7-8.9-5-8.3-10.5c0.7-6.1,1.7-12.1,2.6-18.2
				c1.7-11.6,3.5-23.2,5.2-34.9c2.4-16.1,4.7-32.2,7.1-48.4c3-20.1,6-40.3,9-60.4c2.2-15,4.5-30.1,6.6-45.1
				c0.9-6.2,2.2-10,11.9-10.2c7.4-0.1,14.7,0,22.1,0c6.1,0,12.2,0,18.3,0c1.7,0,3.4,0.3,5.1,0.5c3.6,0.4,5.9,2.6,7.4,5.8
				c0.6,1.3,1.1,2.6,1.6,3.9c11.6,28.3,23.1,56.6,34.7,84.8c0.5,1.1,1,2.2,1.7,3.7c1.2-1.2,1.2-2.4,1.3-3.6
				c2-13.2,3.9-26.4,5.8-39.5c2.2-15.2,4.5-30.4,6.7-45.6c0.2-1.2,0.4-2.5,0.8-3.7c1.1-2.9,3-5.2,6.2-5.8c1.7-0.3,3.4-0.6,5.1-0.6
				c14,0,27.9,0,41.9,0c1.7,0,3.4,0.2,5.1,0.6c5.1,1.2,7.9,5.2,7.2,10.4c-1.2,8.2-2.4,16.4-3.6,24.6c-2.7,18.3-5.4,36.6-8.1,54.9
				c-3,20.3-6,40.6-9,60.9c-2.7,18-5.3,36-7.9,53.9c-0.6,4.3-1.3,8.7-1.9,13c-0.2,1.1-0.4,2.2-0.7,3.2c-1,3.1-3,5.1-6.2,5.8
				c-1.5,0.3-3.1,0.4-4.7,0.4c-13.8,0-27.6,0-41.4,0c-5.7,0-9.4-0.7-12.5-8.3c-11.7-28.9-23.6-57.7-35.5-86.6
				C578.1,259.8,577.8,258.2,576.3,257z"/>
		</g>
		<g>
			<path class="st0" d="M904.4,267.1c0.3-15.6,2.3-29,5.4-42.4c4.1-17.9,11.1-34.6,21.3-49.9c12-18.1,27.5-32.5,47.3-41.8
				c15.7-7.4,32.4-10.9,49.8-9.7c15.7,1.1,30.5,5.4,43.7,14.4c14.4,9.9,24.8,23,31,39.2c6.6,17.2,9.5,35,7.9,53.5
				c-1.6,17.6-4.9,34.7-11.6,51.1c-7.6,18.7-18.5,35.2-33.4,48.9c-14.7,13.5-31.6,22.9-51.2,27.5c-11.6,2.7-23.2,3.9-35,2.5
				c-13.7-1.6-26.6-5.5-38.2-13.4c-12.8-8.8-22-20.4-28-34.6c-4.6-11.1-7.3-22.6-8.3-34.6C904.7,273.7,904.6,269.5,904.4,267.1z
				 M1045.4,226.2c0.1-6.6-0.3-13.2-1.8-19.6c-1.7-7.3-4.7-13.9-10.2-19.3c-2.8-2.7-6.1-4.4-9.9-5.1c-7.2-1.2-14-0.4-20.4,3.4
				c-4.8,2.8-8.8,6.6-12.3,10.8c-6.1,7.1-10.2,15.3-13.5,24.1c-6.7,18-8.4,36.5-5.2,55.5c1.2,7,3.8,13.6,8.3,19.2
				c3.5,4.4,8,7,13.6,7.5c7.6,0.7,14.6-1,20.9-5.5c5.3-3.8,9.8-8.3,13.3-13.8C1039.5,266.1,1045.3,247,1045.4,226.2z"/>
		</g>
		<g>
			<path class="st0" d="M350.8,128.2c6.7,0,13.5,0,20.2,0c1.9,0,3.8,0.2,5.6,0.6c5.1,1.1,7.9,5.1,7.3,10.4c-0.4,3.6-1,7.1-1.6,10.7
				c-4.6,30.8-9.1,61.7-13.7,92.5c-1.6,10.7-3.2,21.4-4.7,32.1c-0.5,3.5-0.6,7.2-0.2,10.8c1,7.6,4.9,13.5,12.3,16.5
				c5.3,2.1,10.8,1.9,16-0.3c8.8-3.6,15.1-9.9,19.2-18.5c1.6-3.3,2.7-6.7,3.2-10.3c3.3-22.9,6.8-45.9,10.1-68.8
				c3-20.3,6-40.6,9.1-60.9c0.4-2.5,0.7-5,1.2-7.4c0.8-4,3.1-6.4,7.2-7c1.5-0.2,3.1-0.5,4.7-0.5c13.8,0,27.6,0,41.4,0
				c1.6,0,3.1,0.2,4.7,0.5c5.7,1.1,8.5,5.1,7.8,10.9c-0.5,4.2-1.2,8.4-1.8,12.5c-1.8,11.8-3.5,23.5-5.3,35.3
				c-2.4,16.3-4.8,32.6-7.2,48.8c-1.7,11.3-3.3,22.6-5.1,33.9c-2.1,13.1-5.9,25.6-12.4,37.3c-6.2,11-13.8,20.9-23.5,29.1
				c-13.3,11.2-28.6,18.4-45.6,22.1c-18.1,3.9-35.9,3.2-53.3-2.9c-23.1-8.2-38.4-24-45.3-47.7c-4.2-14.3-4.4-28.7-2.2-43.3
				c3.4-22.9,6.8-45.9,10.2-68.8c2.8-19.1,5.7-38.1,8.4-57.2c1.1-7.7,4.1-10.5,12.2-10.5C336.7,128.2,343.8,128.2,350.8,128.2z"/>
		</g>
		<g>
			<path class="st0" d="M816,187.4c-0.9-0.3-1.5-0.5-2-0.6c-1.4-0.1-2.8-0.1-4.2-0.1c-21.9,0-43.9,0-65.8,0c-1.9,0-3.8,0-5.6-0.3
				c-5.5-0.9-8.5-4.7-8.1-10.2c0.2-2.2,0.6-4.3,0.9-6.5c1.5-10.4,3.1-20.8,4.6-31.2c0.2-1.4,0.4-2.8,0.9-4.1
				c0.9-2.9,2.8-4.9,5.9-5.5c1.7-0.3,3.4-0.5,5.1-0.7c0.9-0.1,1.9,0,2.8,0c53.1,0,106.3,0,159.4,0c2.5,0,5,0.1,7.5,0.6
				c4.8,1,7.5,5.4,6.7,10.3c-0.4,2.4-1.6,4.4-3.1,6.2c-5.7,7.3-11.3,14.6-17,21.9c-24.7,32.2-49.5,64.3-74.2,96.5
				c-7.7,10.1-15.5,20.1-23.2,30.2c-0.6,0.8-1.1,1.7-1.8,2.8c1.6,0.8,3.1,0.6,4.4,0.6c16.5,0,32.9,0,49.4,0c5.5,0,11,0,16.5,0
				c1.6,0,3.1,0.3,4.7,0.4c5.8,0.7,8.6,6.6,7.9,11c-0.7,4.3-1.3,8.7-2,13c-1.2,7.9-2.4,15.8-3.6,23.7c-0.2,1.2-0.4,2.5-0.7,3.7
				c-0.9,3.8-3.3,5.9-7.1,6.5c-1.7,0.3-3.4,0.3-5.2,0.3c-21.6,0-43.3,0-64.9,0c-31.2,0-62.4,0-93.6,0c-1.7,0-3.4,0-5.2-0.1
				c-8.1-0.6-9.9-9.4-7-14c0.6-0.9,1.2-1.8,1.9-2.7c27.8-36.3,55.7-72.6,83.5-108.9c10.2-13.3,20.4-26.6,30.5-39.9
				C814.7,189.5,815.2,188.6,816,187.4z"/>
		</g>
		<g>
			<path class="st0" d="M63.7,349.1c8.1-12,61.1-85.2,71.3-99.3c1.5-2,4.8-3.8,7.8-1.1c0.1,0.1,2.8,2.6,3,2.7
				c13.6,12.1,23.4,20.2,37,32.3c0.6,0.6,1.3,1.1,1.9,1.7c1.4,1.1,3.5,0.9,4.5-0.6c0.4-0.5,0.7-1.1,1.1-1.6
				c11.1-15.3,22.2-30.7,33.3-46.1c13.9-19.2,27.7-38.3,41.6-57.5l0,0c1.4-1.9,4.2-1.6,5.2,0.5c0,0.1,0.1,0.2,0.1,0.3
				c4,8,6.5,16.6,8.4,25.4c3.1,14.3,2.4,28.6-0.2,42.9c-4.3,23.2-14.5,43.5-29.7,61.5c-14.9,17.6-33.1,30.6-54.6,38.6
				c-12.5,4.7-25.6,7.3-39,7.3c-27.3,0-54.5,0-81.8,0c-1.4,0-2.8-0.1-4.2-0.3c-2.4-0.4-4.4-1.4-5.6-3.3
				C63,351.5,63,350.1,63.7,349.1z"/>
		</g>
		<g>
			<path class="st0" d="M181.4,240.9c-0.3,0.5-1.5,2.3-3.9,0.6c-1.3-1-0.8-0.5-1.9-1.4c-13.7-11.7-25.4-21.8-39.1-33.5
				c-3.9-3.5-7.6-1.9-9.5,2.4c-8.9,18.3-16.4,33.6-25.3,51.9c-12.1,25-24.1,49.9-36.2,74.9c-1.1,2.5-2.6,1.9-2.5,0.7l0,0
				c1.8-12.1,3.5-24.2,5.3-36.2c2.7-18.1,5.4-36.2,8-54.4s5.3-36.2,8-54.4c2.4-16.4,4.8-32.8,7.3-49.3c0.3-2,0.6-4,1.1-6
				c0.9-3.8,3.1-6.4,7.2-7c1.5-0.2,3.1-0.4,4.7-0.4c26.9,0,53.9-0.2,80.8,0c15.7,0.1,30.8,3.5,44.8,10.8c0.1,0.1,0.2,0.1,0.3,0.2
				C229.8,141.6,198.2,206.3,181.4,240.9z"/>
		</g>
	</g>
	<g>
		<path class="st1" d="M1184.8,252.5V126.2h77.4v124c0,35.1,13.5,48.2,35.1,48.2s35.1-13.1,35.1-48.2v-124h76.1v126.3
			c0,68.9-41.3,108.6-111.9,108.6S1184.8,321.4,1184.8,252.5z"/>
		<path class="st1" d="M1444,126.2h77.4v229.7H1444V126.2z"/>
	</g>
</g>
</svg>
