<?xml version="1.0" encoding="utf-8"?>
<!-- Generator: Adobe Illustrator 23.0.1, SVG Export Plug-In . SVG Version: 6.00 Build 0)  -->
<svg version="1.1" id="Layer_1" xmlns="http://www.w3.org/2000/svg" xmlns:xlink="http://www.w3.org/1999/xlink" x="0px" y="0px"
	 viewBox="0 0 512 512" style="enable-background:new 0 0 512 512;" xml:space="preserve">
<style type="text/css">
	.st0{fill:#0CF1B3;}
	.st1{fill:#3D3449;}
	.st2{fill:#FFA683;}
	.st3{fill:#FFFFFF;}
	.st4{fill:#4A3E56;}
	.st5{fill:#21253E;}
</style>
<g>
	<g>
		<g>
			<path class="st0" d="M512,256c0,56.5-18.3,108.7-49.3,151.1c-46.6,63.6-121.8,39.5-206.7,39.5S95.9,470.7,49.3,407.1
				C18.3,364.7,0,312.5,0,256C0,114.6,114.6,0,256,0S512,114.6,512,256z"/>
		</g>
	</g>
	<g>
		<ellipse class="st1" cx="256" cy="76.1" rx="61.5" ry="59.3"/>
		<path class="st1" d="M317.5,76.2c0,32.7-27.5,59.3-61.5,59.3V16.9c33.4,0,60.5,25.6,61.5,57.5C317.5,75,317.5,75.6,317.5,76.2z"/>
		<path class="st2" d="M200,332.3c0,0,31-25.3,25-63.3s83.9,11,83.9,11s-24.8,41.6,3.2,52.3S215,348,215,348L200,332.3z"/>
		<path class="st2" d="M344.3,159.6C340.6,102.9,294.8,82,256,82s-84.6,20.9-88.3,77.6c-10,1.9-17.1,15.1-16,25.7l1.7,24.2
			c1.2,11.2,11,19.3,21.8,18.1l1.9-0.2c22.2,59.5,56.9,65.7,79,69.2c22.1-3.5,56.8-9.7,79-69.2l1.9,0.2c10.8,1.2,20.6-6.9,21.8-18.1
			l1.7-24.2C361.5,174.7,354.4,161.5,344.3,159.6L344.3,159.6z"/>
		<path class="st2" d="M360.4,185.3l-1.7,24.2c-1.2,11.2-11,19.3-21.8,18.1l-1.9-0.2c-7.6,20.3-16.6,34.4-26.1,44.3
			c-18.3,19.1-38.3,22.6-52.9,24.9V82c38.8,0,84.6,20.9,88.3,77.6C354.4,161.5,361.5,174.7,360.4,185.3L360.4,185.3z"/>
		<path class="st3" d="M274.2,209.8c-10.8-9.2-26.6-9.2-37.4,0c-12,10.2-27.1,16.1-42.9,16.8l-17.4,0.7l1.2,7
			c6.3,38,39.2,65.9,77.8,65.9c39.4-2.2,72.1-31.4,78.5-70.4l0.4-2.5l-17.4-0.7C301.4,226,286.3,220.1,274.2,209.8L274.2,209.8z"/>
		<path class="st2" d="M385.5,332.3H312l0,0H200l0,0h-73.5c-41.8,0-75.9,33.3-77.2,74.8C95.9,470.7,171.1,512,256,512
			s160.1-41.3,206.7-104.9C461.4,365.5,427.4,332.3,385.5,332.3z"/>
		<path class="st4" d="M256,56.4c0,0-66.3-2.6-89.9,53.5s13.4,89.4,13.4,89.4l25.7-71.1c16.2,19.7,66.7,55.2,135.7,69.1
			c0,0,9.7-15.5,12.4-64.6C354.9,102.4,318.2,56.4,256,56.4L256,56.4z"/>
		<path class="st4" d="M353.3,132.7c-2.7,49-12.4,64.6-12.4,64.6c-33.1-6.7-62-18.3-84.9-30.8v-110l0,0c24.8,0,45.6,7.3,61.4,18
			C341.4,90.6,354.3,114.5,353.3,132.7z"/>
		<path class="st5" d="M407,462.7c-42.3,31-94.5,49.3-151,49.3s-108.7-18.3-151-49.3l7.3-7.6c15.8-16.5,28.2-35.8,36.6-56.7
			c8.4-20.9,12.8-43.3,12.8-66.2H200V383c0,6.5,1.1,12.8,3.3,18.8c2.1,6,5.3,11.6,9.4,16.6c11.2,13.7,27.3,20.5,43.4,20.5
			s32.1-6.8,43.4-20.5c8.2-10,12.7-22.5,12.7-35.5v-50.7h38.3c0,45.8,17.7,89.8,49.4,122.9L407,462.7z"/>
	</g>
</g>
</svg>
