<?xml version="1.0" encoding="utf-8"?>
<!-- Generator: Adobe Illustrator 23.0.1, SVG Export Plug-In . SVG Version: 6.00 Build 0)  -->
<svg version="1.1" id="Layer_1" xmlns="http://www.w3.org/2000/svg" xmlns:xlink="http://www.w3.org/1999/xlink" x="0px" y="0px"
	 viewBox="0 0 265 300" style="enable-background:new 0 0 265 300;" xml:space="preserve">
<style type="text/css">
	.st0{fill:#4779F4;}
	.st1{fill:#493149;}
	.st2{fill:#A8A69E;}
	.st3{opacity:0.2;fill:#833149;}
	.st4{fill:#FFA683;}
	.st5{fill:#E77B83;}
	.st6{fill:#FFFFFF;}
	.st7{fill:#F7D5D3;}
	.st8{fill:#B05269;}
	.st9{opacity:0.1;fill:#493149;}
	.st10{fill:#FCCB65;}
	.st11{fill:#EAC52D;}
</style>
<rect x="0" y="0" class="st0" width="265" height="300"/>
<g>
	<path class="st1" d="M60.07,179.74c0,0-13.21-33.8,14.37-40.4c-12.43-10.88-3.84-32.04,12.26-27.87
		c-12.26-3.6-20.71-44.52-2.69-50.28c-2.61-24.38,22.41-43.31,51.63-39c31.61,4.66,42.6,26.32,38.9,39
		c9.06,4.34,10.71,42.22-1.19,50.28c18.8,6.5,13.08,28.08,13.08,28.08s33.13,9.09,14.96,44.84
		C131.16,208.48,60.07,179.74,60.07,179.74z"/>
	<path class="st2" d="M221.18,226.18c-4.46,11.38-32.45,14.1-32.45,14.1s0,16.4-0.4,28.53c-34.45,25.45-119.02,6.17-118.22,3.82
		c0.8-2.36-0.89-20.25-0.89-20.25s-18.68-7.28-25.74-17.86c-7.04-10.57,3.49-44.19,13.29-58.21c12.91-18.48,33.1-26.51,33.1-26.51
		s43.24,14.33,86.22-1.06C225.93,177.24,226.71,212.09,221.18,226.18z"/>
	<polygon class="st3" points="81.49,194.01 74.87,219.11 89.82,226.16 89.82,209.15 	"/>
	<polygon class="st3" points="151.6,214.99 170.89,223.67 195.11,214.99 180.53,196.44 160.69,200.33 	"/>
	<path class="st3" d="M188.73,240.28c0,0,0,16.4-0.4,28.53c-34.45,25.45-119.02,6.17-118.22,3.82c0.8-2.36-0.89-20.25-0.89-20.25
		s23.81,6.14,28.18,3.53c4.38-2.59,5.4-16.99,5.4-16.99l30.18-23.63l47.55,16.49C180.52,231.77,177.94,239.06,188.73,240.28z"/>
	<g>
		<g>
			<path class="st4" d="M133.11,164.11c-32.82,0.55-43.24-14.32-43.24-14.32s28.22-7.2,30.76-24.91c1.01-7.02-1-15.19-1-15.19
				l25.48-2.39c0,0-2.48,11.14,0.47,20.81c4.75,15.56,30.49,20.6,30.49,20.6S165.93,163.56,133.11,164.11z"/>
			<path class="st5" d="M145.59,128.12c-3.77,1.32-7.95,1.36-11.94,0.81c-4.51-0.62-8.94-2-13.01-4.05c0.83-7.04-1-15.19-1-15.19
				l25.48-2.39C145.12,107.3,143.22,118.28,145.59,128.12z"/>
			<path class="st4" d="M94.42,84.58c0,0,0.73,33.75,35.45,34.82c36.04,1.11,35.48-34.64,35.48-34.64s3.05,3.94,6.48-0.47
				c3.44-4.4,4.11-15.68-0.96-16.9c-5.07-1.22-7.25,6.53-7.25,6.53s-32.12-12.73-32.24-29.22c-2.64,18.84-35.37,28.58-35.37,28.58
				s-3.82-8.4-9.94-5.1C80.25,71.3,85.52,93.08,94.42,84.58z"/>
		</g>
	</g>
	<g>
		<path class="st6" d="M168.74,204.41c6.52,18.37-24.7,25.53-48.8,26.35c-11.01,0.36-20.53-0.58-24.29-2.39
			c-11.2-5.4-10.79-27.65,2.51-38.08c0.9-0.72,1.87-1.38,2.9-1.97c20.53-11.85,41.65-0.72,41.65-0.72s1.54-16.93,9.8-20.11
			c8.25-3.17,23.93,2.51,32.77,18.99c0.57,1.06,0.45,3.02,0.63,4.58C186.82,198.98,180.04,205.19,168.74,204.41z"/>
		<path class="st7" d="M152.02,165.92c-10.97,0.66-15.04,28.05-5.99,37.99c9.05,9.94,21.33,4.62,17.77-6.51
			C159.14,182.84,155.22,165.72,152.02,165.92z"/>
		<path class="st6" d="M156.17,167.83c0,0,5.52-4.84,11.7-3.46c-1.06,0.68-3.21,1.39-3.21,1.39s5.17,0.07,8.57,2.22
			c-3.46-0.28-7.26,1.65-7.26,1.65"/>
		<path class="st6" d="M94.27,200.09c0,0,3.23-13.08-8.43-11.44c-8.84,1.25-11.24,15.48,4.09,15.71"/>
		<path class="st8" d="M180.6,187.95c1.18,1.66,5.31,3.11,5.31,3.11s1.26-3.03-0.24-4.81C185.04,185.5,179.86,186.9,180.6,187.95z"
			/>
		<path class="st9" d="M119.95,230.76c-11.01,0.36-20.53-0.58-24.29-2.39c-11.2-5.4-10.79-27.65,2.51-38.08
			C93.09,202.08,89.28,222.88,119.95,230.76z"/>
	</g>
	<path class="st4" d="M94.24,221.95l14.87,0.79c0,0,9.53-6.93,11.97-6.27c2.43,0.66-2.47,6.84-2.47,6.84s17.4-0.71,19.17,1.5
		c1.77,2.21-8.82,3.65-8.82,3.65s10.78,0.87,10.38,3.62c-0.4,2.75-11.27,2.31-11.27,2.31s8.94,1.3,8.06,3.73s-10.27,0.29-10.27,0.29
		s6.19,3.1,4.2,4.87c-1.99,1.77-27.7-2.18-27.7-2.18S93.98,238.27,94.24,221.95z"/>
	<path class="st2" d="M95.6,220.65c0,0,11.43,7.49,5.5,27.44c-9.72,8.65-41.9-5.8-41.9-5.8s-7.6-25.32,4.37-30.19
		C63.57,212.09,88.12,218.56,95.6,220.65z"/>
	<path class="st4" d="M184.2,213.49l-14.57,3.07c0,0-10.49-5.38-12.79-4.34c-2.3,1.03,3.5,6.38,3.5,6.38s-17.3,1.98-18.7,4.44
		c-1.41,2.46,9.28,2.25,9.28,2.25s-10.52,2.53-9.7,5.18c0.82,2.66,11.49,0.55,11.49,0.55s-8.64,2.66-7.39,4.93
		c1.25,2.27,10.19-1.3,10.19-1.3s-5.64,4.02-3.4,5.46c2.24,1.44,34.27-8.32,34.27-8.32S186.97,229.58,184.2,213.49z"/>
	<path class="st2" d="M178.25,212.97c0,0,2.39,16.28,2.45,22.03c12.86,12.74,30.7-9.69,30.4-10.58
		C211.1,224.42,214.3,196.44,178.25,212.97z"/>
	<path class="st10" d="M78.82,181.64"/>
	<path class="st11" d="M94.69,53.72c0,0,9.79-20.44,33.62-20.05c23.84,0.39,33.94,16.51,33.94,16.51s-3.27-24.84-34.99-23.84
		C95.53,27.35,94.69,53.72,94.69,53.72z"/>
	<path class="st1" d="M135.64,40.39c0,0-2.15,21.25-16.91,27.85c8.94-10.49,8.45-23.55,8.45-23.55S127.69,38.18,135.64,40.39z"/>
</g>
</svg>
