<?xml version="1.0" encoding="utf-8"?>
<!-- Generator: Adobe Illustrator 23.0.1, SVG Export Plug-In . SVG Version: 6.00 Build 0)  -->
<svg version="1.1" id="Layer_1" xmlns="http://www.w3.org/2000/svg" xmlns:xlink="http://www.w3.org/1999/xlink" x="0px" y="0px"
	 viewBox="0 0 265 300" style="enable-background:new 0 0 265 300;" xml:space="preserve">
<style type="text/css">
	.st0{fill:#44B5F1;}
	.st1{fill:#181A1B;}
	.st2{fill:#0CF1B3;}
	.st3{opacity:0.2;fill:#833149;enable-background:new    ;}
	.st4{fill:#FFA683;}
	.st5{fill:#E77B83;}
	.st6{fill:#FFFFFF;}
	.st7{fill:#F7D5D3;}
	.st8{fill:#F79CAF;}
	.st9{opacity:0.1;fill:#493149;enable-background:new    ;}
	.st10{fill:#FCCB65;}
	.st11{fill:#07A4DB;}
</style>
<rect class="st0" width="265" height="300"/>
<g>
	<path class="st1" d="M60.1,179.7c0,0-13.2-33.8,14.4-40.4c-12.4-10.9-3.8-32,12.3-27.9C74.4,107.9,66,66.9,84,61.2
		c-2.6-24.4,22.4-43.3,51.6-39c31.6,4.7,42.6,26.3,38.9,39c9.1,4.3,10.7,42.2-1.2,50.3c18.8,6.5,13.1,28.1,13.1,28.1
		s33.1,9.1,15,44.8C131.2,208.5,60.1,179.7,60.1,179.7z"/>
	<path class="st2" d="M221.2,226.2c-4.5,11.4-32.4,14.1-32.4,14.1s0,16.4-0.4,28.5c-34.4,25.5-119,6.2-118.2,3.8
		c0.8-2.4-0.9-20.3-0.9-20.3s-18.7-7.3-25.7-17.9c-7-10.6,3.5-44.2,13.3-58.2c12.9-18.5,33.1-26.5,33.1-26.5s43.2,14.3,86.2-1.1
		C225.9,177.2,226.7,212.1,221.2,226.2z"/>
	<polygon class="st3" points="81.5,194 74.9,219.1 89.8,226.2 89.8,209.1 	"/>
	<polygon class="st3" points="151.6,215 170.9,223.7 195.1,215 180.5,196.4 160.7,200.3 	"/>
	<path class="st3" d="M188.7,240.3c0,0,0,16.4-0.4,28.5c-34.4,25.5-119,6.2-118.2,3.8c0.8-2.4-0.9-20.3-0.9-20.3s23.8,6.1,28.2,3.5
		c4.4-2.6,5.4-17,5.4-17l30.2-23.6l47.6,16.5C180.5,231.8,177.9,239.1,188.7,240.3z"/>
	<g>
		<g>
			<path class="st4" d="M133.1,164.1c-32.8,0.6-43.2-14.3-43.2-14.3s28.2-7.2,30.8-24.9c1-7-1-15.2-1-15.2l25.5-2.4
				c0,0-2.5,11.1,0.5,20.8c4.8,15.6,30.5,20.6,30.5,20.6S165.9,163.6,133.1,164.1z"/>
			<path class="st5" d="M145.6,128.1c-3.8,1.3-7.9,1.4-11.9,0.8c-4.5-0.6-8.9-2-13-4.1c0.8-7-1-15.2-1-15.2l25.5-2.4
				C145.1,107.3,143.2,118.3,145.6,128.1z"/>
			<path class="st4" d="M94.4,84.6c0,0,0.7,33.8,35.4,34.8c36,1.1,35.5-34.6,35.5-34.6s3.1,3.9,6.5-0.5c3.4-4.4,4.1-15.7-1-16.9
				s-7.3,6.5-7.3,6.5s-32.1-12.7-32.2-29.2C128.7,63.5,96,73.3,96,73.3s-3.8-8.4-9.9-5.1C80.3,71.3,85.5,93.1,94.4,84.6z"/>
		</g>
	</g>
	<g>
		<path class="st6" d="M168.7,204.4c6.5,18.4-24.7,25.5-48.8,26.4c-11,0.4-20.5-0.6-24.3-2.4c-11.2-5.4-10.8-27.6,2.5-38.1
			c0.9-0.7,1.9-1.4,2.9-2c20.5-11.9,41.7-0.7,41.7-0.7s1.5-16.9,9.8-20.1c8.3-3.2,23.9,2.5,32.8,19c0.6,1.1,0.4,3,0.6,4.6
			C186.8,199,180,205.2,168.7,204.4z"/>
		<path class="st7" d="M152,165.9c-11,0.7-15,28.1-6,38c9.1,9.9,21.3,4.6,17.8-6.5C159.1,182.8,155.2,165.7,152,165.9z"/>
		<path class="st6" d="M156.2,167.8c0,0,5.5-4.8,11.7-3.5c-1.1,0.7-3.2,1.4-3.2,1.4s5.2,0.1,8.6,2.2c-3.5-0.3-7.3,1.6-7.3,1.6"/>
		<path class="st6" d="M94.3,200.1c0,0,3.2-13.1-8.4-11.4c-8.8,1.3-11.2,15.5,4.1,15.7"/>
		<path class="st8" d="M180.6,187.9c1.2,1.7,5.3,3.1,5.3,3.1s1.3-3-0.2-4.8C185,185.5,179.9,186.9,180.6,187.9z"/>
		<path class="st9" d="M119.9,230.8c-11,0.4-20.5-0.6-24.3-2.4c-11.2-5.4-10.8-27.6,2.5-38.1C93.1,202.1,89.3,222.9,119.9,230.8z"/>
	</g>
	<path class="st4" d="M94.2,221.9l14.9,0.8c0,0,9.5-6.9,12-6.3c2.4,0.7-2.5,6.8-2.5,6.8s17.4-0.7,19.2,1.5s-8.8,3.6-8.8,3.6
		s10.8,0.9,10.4,3.6s-11.3,2.3-11.3,2.3s8.9,1.3,8.1,3.7s-10.3,0.3-10.3,0.3s6.2,3.1,4.2,4.9c-2,1.8-27.7-2.2-27.7-2.2
		S94,238.3,94.2,221.9z"/>
	<path class="st2" d="M95.6,220.6c0,0,11.4,7.5,5.5,27.4c-9.7,8.6-41.9-5.8-41.9-5.8s-7.6-25.3,4.4-30.2
		C63.6,212.1,88.1,218.6,95.6,220.6z"/>
	<path class="st4" d="M184.2,213.5l-14.6,3.1c0,0-10.5-5.4-12.8-4.3c-2.3,1,3.5,6.4,3.5,6.4s-17.3,2-18.7,4.4
		c-1.4,2.5,9.3,2.3,9.3,2.3s-10.5,2.5-9.7,5.2c0.8,2.7,11.5,0.6,11.5,0.6s-8.6,2.7-7.4,4.9c1.3,2.3,10.2-1.3,10.2-1.3
		s-5.6,4-3.4,5.5s34.3-8.3,34.3-8.3S187,229.6,184.2,213.5z"/>
	<path class="st2" d="M178.3,213c0,0,2.4,16.3,2.4,22c12.9,12.7,30.7-9.7,30.4-10.6C211.1,224.4,214.3,196.4,178.3,213z"/>
	<path class="st10" d="M78.8,181.6"/>
	<path class="st11" d="M94.7,53.7c0,0,9.8-20.4,33.6-20c23.8,0.4,33.9,16.5,33.9,16.5s-3.3-24.8-35-23.8
		C95.5,27.4,94.7,53.7,94.7,53.7z"/>
	<path class="st1" d="M135.6,40.4c0,0-2.1,21.3-16.9,27.8c8.9-10.5,8.4-23.5,8.4-23.5S127.7,38.2,135.6,40.4z"/>
</g>
</svg>
