<?xml version="1.0" encoding="utf-8"?>
<!-- Generator: Adobe Illustrator 23.0.1, SVG Export Plug-In . SVG Version: 6.00 Build 0)  -->
<svg version="1.1" id="Layer_1" xmlns="http://www.w3.org/2000/svg" xmlns:xlink="http://www.w3.org/1999/xlink" x="0px" y="0px"
	 viewBox="0 0 265 240" style="enable-background:new 0 0 265 240;" xml:space="preserve">
<style type="text/css">
	.st0{fill:#F29657;}
	.st1{fill:#493149;}
	.st2{fill:#536DAA;}
	.st3{opacity:0.2;fill:#833149;}
	.st4{fill:#FFA683;}
	.st5{fill:#E77B83;}
	.st6{fill:#FFFFFF;}
	.st7{fill:#F7D5D3;}
	.st8{fill:#F79CAF;}
	.st9{opacity:0.1;fill:#493149;}
	.st10{fill:#FCCB65;}
	.st11{fill:#AD89F7;}
</style>
<rect x="0" class="st0" width="265" height="240"/>
<g>
	<path class="st1" d="M80.07,141.59c0,0-9.37-23.98,10.2-28.66c-8.82-7.72-2.73-22.73,8.7-19.77c-8.7-2.55-14.69-31.58-1.91-35.67
		c-1.85-17.29,15.9-30.72,36.63-27.67c22.43,3.31,30.23,18.67,27.6,27.67c6.43,3.08,7.6,29.96-0.84,35.67
		c13.34,4.61,9.28,19.92,9.28,19.92s23.5,6.45,10.61,31.81C130.5,161.99,80.07,141.59,80.07,141.59z"/>
	<path class="st2" d="M194.37,174.54c-3.16,8.07-23.02,10-23.02,10s0,11.63-0.28,20.24c-24.44,18.06-84.44,4.38-83.88,2.71
		c0.57-1.67-0.63-14.37-0.63-14.37s-13.26-5.17-18.26-12.67c-5-7.5,2.48-31.35,9.43-41.3c9.16-13.11,23.48-18.81,23.48-18.81
		s30.68,10.16,61.17-0.75C197.73,139.82,198.29,164.55,194.37,174.54z"/>
	<polygon class="st3" points="95.26,151.72 90.56,169.52 101.17,174.53 101.17,162.46 	"/>
	<polygon class="st3" points="145,166.6 158.69,172.76 175.87,166.6 165.53,153.44 151.45,156.2 	"/>
	<path class="st3" d="M171.35,184.54c0,0,0,11.63-0.28,20.24c-24.44,18.06-84.44,4.38-83.88,2.71c0.57-1.67-0.63-14.37-0.63-14.37
		s16.89,4.35,19.99,2.5c3.11-1.84,3.83-12.06,3.83-12.06l21.41-16.77l33.74,11.7C165.52,178.5,163.69,183.68,171.35,184.54z"/>
	<g>
		<g>
			<path class="st4" d="M131.88,130.5c-23.28,0.39-30.67-10.16-30.67-10.16s20.02-5.11,21.83-17.67c0.72-4.98-0.71-10.77-0.71-10.77
				l18.08-1.69c0,0-1.76,7.9,0.33,14.77c3.37,11.04,21.63,14.62,21.63,14.62S155.17,130.11,131.88,130.5z"/>
			<path class="st5" d="M140.74,104.97c-2.67,0.94-5.64,0.97-8.47,0.57c-3.2-0.44-6.34-1.42-9.23-2.87c0.59-5-0.71-10.77-0.71-10.77
				l18.08-1.69C140.41,90.2,139.06,97.99,140.74,104.97z"/>
			<path class="st4" d="M104.44,74.08c0,0,0.52,23.94,25.15,24.7c25.57,0.79,25.17-24.58,25.17-24.58s2.16,2.79,4.6-0.33
				c2.44-3.12,2.91-11.12-0.68-11.99c-3.6-0.87-5.14,4.63-5.14,4.63s-22.79-9.03-22.88-20.73c-1.87,13.37-25.1,20.28-25.1,20.28
				s-2.71-5.96-7.06-3.62C94.38,64.66,98.12,80.11,104.44,74.08z"/>
		</g>
	</g>
	<g>
		<path class="st6" d="M157.17,159.09c4.63,13.04-17.53,18.11-34.62,18.7c-7.81,0.26-14.57-0.41-17.23-1.69
			c-7.95-3.83-7.65-19.62,1.78-27.02c0.64-0.51,1.33-0.98,2.06-1.4c14.57-8.41,29.55-0.51,29.55-0.51s1.1-12.01,6.95-14.27
			c5.86-2.25,16.98,1.78,23.25,13.47c0.4,0.75,0.32,2.14,0.45,3.25C169.99,155.24,165.18,159.65,157.17,159.09z"/>
		<path class="st7" d="M145.3,131.79c-7.78,0.47-10.67,19.9-4.25,26.95s15.14,3.28,12.61-4.62
			C150.36,143.79,147.57,131.65,145.3,131.79z"/>
		<path class="st6" d="M148.25,133.15c0,0,3.92-3.44,8.3-2.46c-0.75,0.49-2.28,0.99-2.28,0.99s3.67,0.05,6.08,1.58
			c-2.45-0.2-5.15,1.17-5.15,1.17"/>
		<path class="st6" d="M104.33,156.04c0,0,2.29-9.28-5.98-8.11c-6.27,0.88-7.97,10.98,2.9,11.14"/>
		<path class="st8" d="M165.58,147.42c0.84,1.18,3.77,2.21,3.77,2.21s0.89-2.15-0.17-3.41
			C168.72,145.68,165.05,146.67,165.58,147.42z"/>
		<path class="st9" d="M122.55,177.79c-7.81,0.26-14.57-0.41-17.23-1.69c-7.95-3.83-7.65-19.62,1.78-27.02
			C103.49,157.45,100.78,172.2,122.55,177.79z"/>
	</g>
	<path class="st4" d="M104.3,171.54l10.55,0.56c0,0,6.76-4.92,8.49-4.45c1.73,0.47-1.75,4.85-1.75,4.85s12.34-0.51,13.6,1.06
		c1.26,1.57-6.26,2.59-6.26,2.59s7.65,0.62,7.37,2.57c-0.29,1.95-7.99,1.64-7.99,1.64s6.35,0.92,5.72,2.65
		c-0.63,1.73-7.29,0.2-7.29,0.2s4.39,2.2,2.98,3.45c-1.41,1.26-19.65-1.55-19.65-1.55S104.13,183.12,104.3,171.54z"/>
	<path class="st2" d="M105.27,170.62c0,0,8.11,5.31,3.9,19.46c-6.9,6.14-29.73-4.12-29.73-4.12s-5.39-17.96,3.1-21.42
		C82.55,164.54,99.96,169.14,105.27,170.62z"/>
	<path class="st4" d="M168.13,165.54l-10.33,2.18c0,0-7.44-3.81-9.07-3.08c-1.63,0.73,2.48,4.52,2.48,4.52s-12.27,1.41-13.27,3.15
		c-1,1.74,6.58,1.59,6.58,1.59s-7.46,1.79-6.88,3.68c0.58,1.89,8.15,0.39,8.15,0.39s-6.13,1.89-5.24,3.5
		c0.89,1.61,7.23-0.92,7.23-0.92s-4,2.85-2.41,3.87c1.59,1.02,24.31-5.9,24.31-5.9S170.09,176.95,168.13,165.54z"/>
	<path class="st2" d="M163.91,165.17c0,0,1.7,11.55,1.74,15.63c9.12,9.04,21.78-6.87,21.57-7.51
		C187.21,173.29,189.49,153.44,163.91,165.17z"/>
	<path class="st10" d="M93.37,142.94"/>
	<path class="st11" d="M104.62,52.18c0,0,6.94-14.5,23.85-14.22c16.91,0.28,24.08,11.71,24.08,11.71s-2.32-17.63-24.82-16.91
		C105.22,33.47,104.62,52.18,104.62,52.18z"/>
	<path class="st1" d="M133.68,42.73c0,0-1.52,15.07-12,19.76c6.34-7.44,6-16.71,6-16.71S128.04,41.16,133.68,42.73z"/>
</g>
</svg>
