<?xml version="1.0" encoding="utf-8"?>
<!-- Generator: Adobe Illustrator 23.0.1, SVG Export Plug-In . SVG Version: 6.00 Build 0)  -->
<svg version="1.1" id="Layer_1" xmlns="http://www.w3.org/2000/svg" xmlns:xlink="http://www.w3.org/1999/xlink" x="0px" y="0px"
	 viewBox="0 0 265 300" style="enable-background:new 0 0 265 300;" xml:space="preserve">
<style type="text/css">
	.st0{fill:#F29657;}
	.st1{fill:#493149;}
	.st2{fill:#536DAA;}
	.st3{opacity:0.2;fill:#833149;enable-background:new    ;}
	.st4{fill:#FFA683;}
	.st5{fill:#E77B83;}
	.st6{fill:#FFFFFF;}
	.st7{fill:#F7D5D3;}
	.st8{fill:#F79CAF;}
	.st9{opacity:0.1;fill:#493149;enable-background:new    ;}
	.st10{fill:#FCCB65;}
	.st11{fill:#AD89F7;}
</style>
<rect y="0" class="st0" width="265" height="300"/>
<g>
	<path class="st1" d="M61.83,178.66c0,0-12.7-32.51,13.83-38.85c-11.96-10.47-3.7-30.82,11.79-26.8
		c-11.79-3.46-19.92-42.81-2.59-48.36C82.36,41.21,106.42,23,134.53,27.14c30.41,4.49,40.98,25.31,37.42,37.51
		c8.72,4.18,10.3,40.62-1.14,48.36c18.09,6.25,12.58,27.01,12.58,27.01s31.86,8.74,14.38,43.12
		C130.2,206.32,61.83,178.66,61.83,178.66z"/>
	<path class="st2" d="M216.79,223.33c-4.28,10.94-31.21,13.56-31.21,13.56s0,15.77-0.38,27.44c-33.13,24.48-114.48,5.94-113.72,3.67
		c0.77-2.26-0.85-19.48-0.85-19.48s-17.98-7.01-24.76-17.18s3.36-42.5,12.78-55.99c12.42-17.77,31.83-25.5,31.83-25.5
		s41.59,13.77,82.93-1.02C221.35,176.26,222.11,209.79,216.79,223.33z"/>
	<polygon class="st3" points="82.43,192.4 76.06,216.53 90.44,223.32 90.44,206.96 	"/>
	<polygon class="st3" points="149.86,212.57 168.42,220.92 191.71,212.57 177.69,194.73 158.6,198.47 	"/>
	<path class="st3" d="M185.58,236.89c0,0,0,15.77-0.38,27.44c-33.13,24.48-114.48,5.94-113.72,3.67c0.77-2.26-0.85-19.48-0.85-19.48
		s22.9,5.9,27.1,3.39c4.22-2.49,5.19-16.35,5.19-16.35l29.03-22.74l45.74,15.86C177.68,228.7,175.2,235.72,185.58,236.89z"/>
	<g>
		<g>
			<path class="st4" d="M132.07,163.63c-31.56,0.53-41.58-13.77-41.58-13.77s27.14-6.93,29.59-23.96c0.98-6.75-0.96-14.6-0.96-14.6
				l24.51-2.29c0,0-2.39,10.71,0.45,20.02c4.57,14.97,29.32,19.82,29.32,19.82S163.65,163.1,132.07,163.63z"/>
			<path class="st5" d="M144.09,129.02c-3.62,1.27-7.65,1.32-11.48,0.77c-4.34-0.6-8.6-1.93-12.51-3.89
				c0.8-6.78-0.96-14.6-0.96-14.6l24.51-2.29C143.64,108.99,141.81,119.55,144.09,129.02z"/>
			<path class="st4" d="M94.87,87.14c0,0,0.7,32.46,34.1,33.49c34.67,1.07,34.12-33.32,34.12-33.32s2.93,3.78,6.24-0.45
				c3.31-4.23,3.95-15.08-0.92-16.25c-4.88-1.18-6.97,6.28-6.97,6.28s-30.9-12.24-31.02-28.1c-2.54,18.13-34.03,27.49-34.03,27.49
				s-3.67-8.08-9.57-4.91C81.23,74.37,86.31,95.31,94.87,87.14z"/>
		</g>
	</g>
	<g>
		<path class="st6" d="M166.36,202.39c6.28,17.68-23.77,24.55-46.93,25.35c-10.59,0.35-19.75-0.56-23.36-2.29
			c-10.78-5.19-10.37-26.6,2.41-36.63c0.87-0.69,1.8-1.33,2.79-1.9c19.75-11.4,40.06-0.69,40.06-0.69s1.49-16.28,9.42-19.35
			c7.94-3.05,23.02,2.41,31.52,18.26c0.54,1.02,0.43,2.9,0.61,4.41C183.74,197.17,177.22,203.15,166.36,202.39z"/>
		<path class="st7" d="M150.27,165.38c-10.55,0.64-14.47,26.98-5.76,36.54s20.53,4.45,17.1-6.26
			C157.13,181.65,153.34,165.19,150.27,165.38z"/>
		<path class="st6" d="M154.27,167.22c0,0,5.31-4.66,11.25-3.34c-1.02,0.66-3.09,1.34-3.09,1.34s4.98,0.07,8.24,2.14
			c-3.32-0.27-6.98,1.59-6.98,1.59"/>
		<path class="st6" d="M94.72,198.25c0,0,3.1-12.58-8.11-10.99c-8.5,1.19-10.8,14.89,3.93,15.1"/>
		<path class="st8" d="M177.76,186.57c1.14,1.6,5.11,3,5.11,3s1.21-2.91-0.23-4.62C182.02,184.21,177.04,185.55,177.76,186.57z"/>
		<path class="st9" d="M119.42,227.74c-10.59,0.35-19.75-0.56-23.36-2.29c-10.78-5.19-10.37-26.6,2.41-36.63
			C93.59,200.16,89.91,220.16,119.42,227.74z"/>
	</g>
	<path class="st4" d="M94.68,219.27l14.3,0.76c0,0,9.16-6.67,11.51-6.03c2.35,0.64-2.37,6.58-2.37,6.58s16.73-0.69,18.44,1.44
		c1.71,2.13-8.49,3.51-8.49,3.51s10.37,0.84,9.99,3.48c-0.39,2.64-10.83,2.22-10.83,2.22s8.61,1.25,7.75,3.59
		c-0.85,2.35-9.88,0.27-9.88,0.27s5.95,2.98,4.04,4.68c-1.91,1.71-26.64-2.1-26.64-2.1S94.45,234.97,94.68,219.27z"/>
	<path class="st2" d="M96,218.02c0,0,10.99,7.2,5.29,26.38c-9.35,8.32-40.3-5.59-40.3-5.59s-7.31-24.35,4.2-29.04
		C65.2,209.78,88.8,216.01,96,218.02z"/>
	<path class="st4" d="M181.22,211.13l-14,2.96c0,0-10.09-5.17-12.3-4.18c-2.21,0.99,3.36,6.13,3.36,6.13s-16.63,1.91-17.99,4.27
		c-1.36,2.36,8.92,2.16,8.92,2.16s-10.11,2.43-9.33,4.99c0.79,2.56,11.05,0.53,11.05,0.53s-8.31,2.56-7.1,4.74s9.8-1.25,9.8-1.25
		s-5.42,3.86-3.27,5.25c2.16,1.38,32.96-8,32.96-8S183.87,226.6,181.22,211.13z"/>
	<path class="st2" d="M175.5,210.63c0,0,2.3,15.66,2.36,21.19c12.36,12.26,29.53-9.31,29.24-10.18
		C207.08,221.64,210.18,194.73,175.5,210.63z"/>
	<path class="st10" d="M79.87,180.49"/>
	<path class="st11" d="M95.12,57.45c0,0,9.41-19.66,32.33-19.28c22.92,0.38,32.65,15.88,32.65,15.88s-3.15-23.9-33.65-22.92
		C95.93,32.09,95.12,57.45,95.12,57.45z"/>
	<path class="st1" d="M134.51,44.64c0,0-2.06,20.43-16.27,26.79c8.6-10.09,8.13-22.65,8.13-22.65S126.87,42.51,134.51,44.64z"/>
</g>
</svg>
