<?xml version="1.0" encoding="utf-8"?>
<!-- Generator: Adobe Illustrator 23.0.1, SVG Export Plug-In . SVG Version: 6.00 Build 0)  -->
<svg version="1.1" id="Layer_1" xmlns="http://www.w3.org/2000/svg" xmlns:xlink="http://www.w3.org/1999/xlink" x="0px" y="0px"
	 viewBox="0 0 265 300" style="enable-background:new 0 0 265 300;" xml:space="preserve">
<style type="text/css">
	.st0{fill:#181A1B;}
	.st1{fill:#493149;}
	.st2{fill:#07A4DB;}
	.st3{opacity:0.2;fill:#833149;enable-background:new    ;}
	.st4{fill:#FFA683;}
	.st5{fill:#E77B83;}
	.st6{fill:#FFFFFF;}
	.st7{fill:#F7D5D3;}
	.st8{fill:#F79CAF;}
	.st9{opacity:0.1;fill:#493149;enable-background:new    ;}
	.st10{fill:#FCCB65;}
	.st11{fill:#0CF1B3;}
</style>
<rect class="st0" width="265" height="300"/>
<g>
	<path class="st1" d="M57.3,180.4c0,0-13.5-34.6,14.7-41.4c-12.7-11.2-3.9-32.8,12.6-28.5C72,106.8,63.4,64.9,81.8,59
		c-2.7-25,23-44.4,52.9-40c32.4,4.8,43.6,27,39.9,40c9.3,4.5,11,43.3-1.2,51.5c19.3,6.7,13.4,28.8,13.4,28.8s33.9,9.3,15.3,45.9
		C130.1,209.9,57.3,180.4,57.3,180.4z"/>
	<path class="st2" d="M222.3,228c-4.6,11.7-33.2,14.4-33.2,14.4s0,16.8-0.4,29.2c-35.3,26.1-121.9,6.3-121.1,3.9
		c0.8-2.4-0.9-20.7-0.9-20.7s-19.1-7.5-26.4-18.3s3.6-45.3,13.6-59.6c13.2-18.9,33.9-27.2,33.9-27.2s44.3,14.7,88.3-1.1
		C227.2,177.9,228,213.6,222.3,228z"/>
	<polygon class="st3" points="79.2,195 72.5,220.7 87.8,228 87.8,210.6 	"/>
	<polygon class="st3" points="151.1,216.5 170.8,225.4 195.6,216.5 180.7,197.5 160.4,201.5 	"/>
	<path class="st3" d="M189.1,242.4c0,0,0,16.8-0.4,29.2c-35.3,26.1-121.9,6.3-121.1,3.9c0.8-2.4-0.9-20.7-0.9-20.7
		s24.4,6.3,28.9,3.6c4.5-2.7,5.5-17.4,5.5-17.4l30.9-24.2l48.7,16.9C180.7,233.7,178.1,241.2,189.1,242.4z"/>
	<g>
		<g>
			<path class="st4" d="M132.1,164.4c-33.6,0.6-44.3-14.7-44.3-14.7s28.9-7.4,31.5-25.5c1-7.2-1-15.5-1-15.5l26.1-2.4
				c0,0-2.5,11.4,0.5,21.3c4.9,15.9,31.2,21.1,31.2,21.1S165.8,163.8,132.1,164.4z"/>
			<path class="st5" d="M144.9,127.5c-3.9,1.4-8.1,1.4-12.2,0.8c-4.6-0.6-9.2-2.1-13.3-4.1c0.9-7.2-1-15.5-1-15.5l26.1-2.4
				C144.4,106.2,142.5,117.5,144.9,127.5z"/>
			<path class="st4" d="M92.5,82.9c0,0,0.7,34.6,36.3,35.7c36.9,1.1,36.3-35.5,36.3-35.5s3.1,4,6.6-0.5c3.5-4.5,4.2-16.1-1-17.3
				c-5.2-1.3-7.4,6.7-7.4,6.7s-32.9-13-33-29.9c-2.7,19.3-36.2,29.3-36.2,29.3s-3.9-8.6-10.2-5.2C78,69.3,83.4,91.6,92.5,82.9z"/>
		</g>
	</g>
	<g>
		<path class="st6" d="M168.6,205.7c6.7,18.8-25.3,26.1-50,27c-11.3,0.4-21-0.6-24.9-2.4c-11.5-5.5-11-28.3,2.6-39
			c0.9-0.7,1.9-1.4,3-2c21-12.1,42.7-0.7,42.7-0.7s1.6-17.3,10-20.6c8.5-3.2,24.5,2.6,33.6,19.4c0.6,1.1,0.5,3.1,0.6,4.7
			C187.1,200.1,180.2,206.5,168.6,205.7z"/>
		<path class="st7" d="M151.5,166.3c-11.2,0.7-15.4,28.7-6.1,38.9c9.3,10.2,21.9,4.7,18.2-6.7C158.8,183.6,154.8,166.1,151.5,166.3z
			"/>
		<path class="st6" d="M155.8,168.2c0,0,5.7-5,12-3.6c-1.1,0.7-3.3,1.4-3.3,1.4s5.3,0.1,8.8,2.3c-3.5-0.3-7.4,1.7-7.4,1.7"/>
		<path class="st6" d="M92.3,201.3c0,0,3.3-13.4-8.6-11.7c-9.1,1.3-11.5,15.9,4.2,16.1"/>
		<path class="st8" d="M180.8,188.8c1.2,1.7,5.4,3.2,5.4,3.2s1.3-3.1-0.2-4.9C185.3,186.3,180,187.8,180.8,188.8z"/>
		<path class="st9" d="M118.6,232.7c-11.3,0.4-21-0.6-24.9-2.4c-11.5-5.5-11-28.3,2.6-39C91.1,203.3,87.2,224.6,118.6,232.7z"/>
	</g>
	<path class="st4" d="M92.3,223.7l15.2,0.8c0,0,9.8-7.1,12.3-6.4c2.5,0.7-2.5,7-2.5,7s17.8-0.7,19.6,1.5c1.8,2.3-9,3.7-9,3.7
		s11,0.9,10.6,3.7c-0.4,2.8-11.5,2.4-11.5,2.4s9.2,1.3,8.3,3.8c-0.9,2.5-10.5,0.3-10.5,0.3s6.3,3.2,4.3,5c-2,1.8-28.4-2.2-28.4-2.2
		S92.1,240.4,92.3,223.7z"/>
	<path class="st2" d="M93.7,222.3c0,0,11.7,7.7,5.6,28.1c-10,8.9-42.9-6-42.9-6s-7.8-25.9,4.5-30.9C60.9,213.6,86,220.2,93.7,222.3z
		"/>
	<path class="st4" d="M184.5,215l-14.9,3.2c0,0-10.7-5.5-13.1-4.5c-2.4,1.1,3.6,6.5,3.6,6.5s-17.7,2-19.2,4.5
		c-1.4,2.5,9.5,2.3,9.5,2.3s-10.8,2.6-9.9,5.3c0.8,2.7,11.8,0.6,11.8,0.6s-8.9,2.7-7.6,5c1.3,2.3,10.4-1.3,10.4-1.3
		s-5.8,4.1-3.5,5.6c2.3,1.5,35.1-8.5,35.1-8.5S187.3,231.5,184.5,215z"/>
	<path class="st2" d="M178.4,214.5c0,0,2.4,16.7,2.5,22.6c13.2,13.1,31.5-9.9,31.1-10.8C212,226.2,215.3,197.5,178.4,214.5z"/>
	<path class="st10" d="M76.5,182.4"/>
	<path class="st11" d="M92.8,51.3c0,0,10-20.9,34.4-20.5c24.4,0.4,34.8,16.9,34.8,16.9s-3.4-25.5-35.8-24.4
		C93.6,24.3,92.8,51.3,92.8,51.3z"/>
	<path class="st1" d="M134.7,37.7c0,0-2.2,21.8-17.3,28.5c9.2-10.7,8.7-24.1,8.7-24.1S126.6,35.4,134.7,37.7z"/>
</g>
</svg>
