<?xml version="1.0" encoding="utf-8"?>
<!-- Generator: Adobe Illustrator 23.0.1, SVG Export Plug-In . SVG Version: 6.00 Build 0)  -->
<svg version="1.1" id="Layer_1" xmlns="http://www.w3.org/2000/svg" xmlns:xlink="http://www.w3.org/1999/xlink" x="0px" y="0px"
	 viewBox="0 0 265 240" style="enable-background:new 0 0 265 240;" xml:space="preserve">
<style type="text/css">
	.st0{fill:#181A1B;}
	.st1{fill:#493149;}
	.st2{fill:#07A4DB;}
	.st3{opacity:0.2;fill:#833149;enable-background:new    ;}
	.st4{fill:#FFA683;}
	.st5{fill:#E77B83;}
	.st6{fill:#FFFFFF;}
	.st7{fill:#F7D5D3;}
	.st8{fill:#F79CAF;}
	.st9{opacity:0.1;fill:#493149;enable-background:new    ;}
	.st10{fill:#FCCB65;}
	.st11{fill:#0CF1B3;}
</style>
<rect y="-2" class="st0" width="265" height="242"/>
<g>
	<path class="st1" d="M76.4,140.8c0,0-10.1-25.8,11-30.8c-9.5-8.3-2.9-24.4,9.3-21.2c-9.3-2.7-15.8-33.9-2.1-38.3
		c-2-18.6,17.1-33,39.4-29.7c24.1,3.6,32.5,20.1,29.7,29.7c6.9,3.3,8.2,32.2-0.9,38.3c14.3,5,10,21.4,10,21.4s25.3,6.9,11.4,34.2
		C130.6,162.7,76.4,140.8,76.4,140.8z"/>
	<path class="st2" d="M199.2,176.2c-3.4,8.7-24.7,10.7-24.7,10.7s0,12.5-0.3,21.7c-26.3,19.4-90.7,4.7-90.1,2.9
		c0.6-1.8-0.7-15.4-0.7-15.4s-14.3-5.6-19.6-13.6c-5.4-8.1,2.7-33.7,10.1-44.4c9.8-14.1,25.2-20.2,25.2-20.2s33,10.9,65.7-0.8
		C202.9,138.9,203.5,165.5,199.2,176.2z"/>
	<polygon class="st3" points="92.8,151.7 87.7,170.8 99.1,176.2 99.1,163.2 	"/>
	<polygon class="st3" points="146.2,167.7 160.9,174.3 179.4,167.7 168.3,153.5 153.1,156.5 	"/>
	<path class="st3" d="M174.5,187c0,0,0,12.5-0.3,21.7c-26.3,19.4-90.7,4.7-90.1,2.9c0.6-1.8-0.7-15.4-0.7-15.4s18.2,4.7,21.5,2.7
		c3.3-2,4.1-13,4.1-13l23-18l36.3,12.6C168.2,180.5,166.3,186,174.5,187z"/>
	<g>
		<g>
			<path class="st4" d="M132.1,128.9c-25,0.4-33-10.9-33-10.9s21.5-5.5,23.5-19c0.8-5.4-0.8-11.6-0.8-11.6l19.4-1.8
				c0,0-1.9,8.5,0.4,15.9c3.6,11.9,23.2,15.7,23.2,15.7S157.1,128.5,132.1,128.9z"/>
			<path class="st5" d="M141.6,101.5c-2.9,1-6.1,1-9.1,0.6c-3.4-0.5-6.8-1.5-9.9-3.1c0.6-5.4-0.8-11.6-0.8-11.6l19.4-1.8
				C141.3,85.6,139.8,94,141.6,101.5z"/>
			<path class="st4" d="M102.6,68.3c0,0,0.6,25.7,27,26.5c27.5,0.8,27-26.4,27-26.4s2.3,3,4.9-0.4c2.6-3.4,3.1-12-0.7-12.9
				c-3.9-0.9-5.5,5-5.5,5s-24.5-9.7-24.6-22.3c-2,14.4-27,21.8-27,21.8s-2.9-6.4-7.6-3.9C91.8,58.1,95.8,74.7,102.6,68.3z"/>
		</g>
	</g>
	<g>
		<path class="st6" d="M159.3,159.6c5,14-18.8,19.5-37.2,20.1c-8.4,0.3-15.7-0.4-18.5-1.8c-8.5-4.1-8.2-21.1,1.9-29
			c0.7-0.5,1.4-1.1,2.2-1.5c15.7-9,31.8-0.5,31.8-0.5s1.2-12.9,7.5-15.3c6.3-2.4,18.2,1.9,25,14.5c0.4,0.8,0.3,2.3,0.5,3.5
			C173.1,155.5,167.9,160.2,159.3,159.6z"/>
		<path class="st7" d="M146.5,130.3c-8.4,0.5-11.5,21.4-4.6,29c6.9,7.6,16.3,3.5,13.6-5C152,143.2,149,130.1,146.5,130.3z"/>
		<path class="st6" d="M149.7,131.7c0,0,4.2-3.7,8.9-2.6c-0.8,0.5-2.4,1.1-2.4,1.1s3.9,0.1,6.5,1.7c-2.6-0.2-5.5,1.3-5.5,1.3"/>
		<path class="st6" d="M102.5,156.3c0,0,2.5-10-6.4-8.7c-6.7,0.9-8.6,11.8,3.1,12"/>
		<path class="st8" d="M168.3,147.1c0.9,1.3,4.1,2.4,4.1,2.4s1-2.3-0.2-3.7C171.7,145.2,167.7,146.3,168.3,147.1z"/>
		<path class="st9" d="M122.1,179.7c-8.4,0.3-15.7-0.4-18.5-1.8c-8.5-4.1-8.2-21.1,1.9-29C101.6,157.9,98.7,173.7,122.1,179.7z"/>
	</g>
	<path class="st4" d="M102.5,173l11.3,0.6c0,0,7.3-5.3,9.1-4.8S121,174,121,174s13.3-0.5,14.6,1.1c1.4,1.7-6.7,2.8-6.7,2.8
		s8.2,0.7,7.9,2.8c-0.3,2.1-8.6,1.8-8.6,1.8s6.8,1,6.1,2.8c-0.7,1.9-7.8,0.2-7.8,0.2s4.7,2.4,3.2,3.7c-1.5,1.4-21.1-1.7-21.1-1.7
		S102.3,185.4,102.5,173z"/>
	<path class="st2" d="M103.5,172c0,0,8.7,5.7,4.2,20.9c-7.4,6.6-31.9-4.4-31.9-4.4s-5.8-19.3,3.3-23
		C79.1,165.5,97.8,170.4,103.5,172z"/>
	<path class="st4" d="M171.1,166.5l-11.1,2.3c0,0-8-4.1-9.7-3.3c-1.8,0.8,2.7,4.9,2.7,4.9s-13.2,1.5-14.3,3.4s7.1,1.7,7.1,1.7
		s-8,1.9-7.4,4c0.6,2,8.8,0.4,8.8,0.4s-6.6,2-5.6,3.8s7.8-1,7.8-1s-4.3,3.1-2.6,4.2c1.7,1.1,26.1-6.3,26.1-6.3
		S173.2,178.8,171.1,166.5z"/>
	<path class="st2" d="M166.5,166.1c0,0,1.8,12.4,1.9,16.8c9.8,9.7,23.4-7.4,23.2-8.1C191.6,174.9,194,153.5,166.5,166.1z"/>
	<path class="st10" d="M90.7,142.3"/>
	<path class="st11" d="M102.8,44.7c0,0,7.5-15.6,25.6-15.3c18.2,0.3,25.9,12.6,25.9,12.6s-2.5-18.9-26.7-18.2
		C103.5,24.6,102.8,44.7,102.8,44.7z"/>
	<path class="st1" d="M134,34.6c0,0-1.6,16.2-12.9,21.2c6.8-8,6.4-18,6.4-18S128,32.9,134,34.6z"/>
</g>
</svg>
