<?xml version="1.0" encoding="utf-8"?>
<!-- Generator: Adobe Illustrator 23.0.1, SVG Export Plug-In . SVG Version: 6.00 Build 0)  -->
<svg version="1.1" id="Layer_1" xmlns="http://www.w3.org/2000/svg" xmlns:xlink="http://www.w3.org/1999/xlink" x="0px" y="0px"
	 viewBox="0 0 512 512" style="enable-background:new 0 0 512 512;" xml:space="preserve">
<style type="text/css">
	.st0{fill:#44B5F1;}
	.st1{fill:#3288AD;}
	.st2{fill:#FFA683;}
	.st3{fill:#21253E;}
	.st4{fill:#0CF1B3;}
	.st5{fill:#493149;}
	.st6{fill:#F7A969;}
	.st7{fill:#FFFFFF;}
</style>
<g>
	<g>
		<g>
			<path class="st0" d="M512,256c0,56.5-18.3,108.7-49.3,151.1c-46.6,63.6-121.8,39.5-206.7,39.5S95.9,470.7,49.3,407.1
				C18.3,364.7,0,312.5,0,256C0,114.6,114.6,0,256,0S512,114.6,512,256z"/>
		</g>
	</g>
	<path class="st1" d="M256,446.6c84.9,0,160.1,24.1,206.7-39.5c31-42.3,49.3-94.6,49.3-151.1c0-8-0.4-16-1.1-23.9L343.3,64.6
		l-214.5,152l35.3,35.2L166,374c-40.9,1.1-116.7,33.1-116.7,33.1C95.9,470.7,171.1,446.6,256,446.6z"/>
	<g>
		<path class="st2" d="M200,260.5H312v118.8H200V260.5z"/>
		<path class="st3" d="M462.7,407.1C416.1,470.7,340.9,512,256,512S95.9,470.7,49.3,407.1c1.3-41.5,35.3-74.8,77.2-74.8H200l56,36.7
			l56-36.7h73.5C427.4,332.3,461.4,365.5,462.7,407.1z"/>
		<path class="st4" d="M172.2,300.3L256,369l-41.9,47.2l-71.6-83.9L172.2,300.3z"/>
		<path class="st4" d="M339.8,300.3L256,369l41.9,47.2l71.6-83.9L339.8,300.3z"/>
		<path class="st5" d="M149,160l-33,231l49.1-11.1c20.4-4.6,34.8-22.7,34.8-43.6V176L149,160z"/>
		<path class="st5" d="M363,160l33,231l-49.1-11.1c-20.4-4.6-34.8-22.7-34.8-43.6V176L363,160z"/>
		<path class="st2" d="M349.6,151.1c-4-60-52.5-82.2-93.6-82.2s-89.7,22.2-93.6,82.2c-10.6,2.1-18.2,16-17,27.3l1.8,25.6
			c1.2,11.8,9.3,14.6,20.8,13.3l4.3,5.7c23.5,63.1,60.3,69.6,83.7,73.3c23.4-3.7,60.2-10.3,83.7-73.3l4.4-1.8
			c11.5,1.3,19.4-5.3,20.7-17.1l1.8-25.6C367.8,167.1,360.2,153.2,349.6,151.1L349.6,151.1z"/>
		<path class="st6" d="M366.6,178.4l-1.8,25.6c-1.2,11.8-11.6,20.5-23.1,19.2l-2-0.2c-8,21.5-17.6,36.5-27.7,47
			c-19.4,20.2-40.6,23.9-56,26.4V68.9c41.1,0,89.7,22.2,93.6,82.2C360.2,153.2,367.8,167.1,366.6,178.4L366.6,178.4z"/>
		<g>
			<path class="st3" d="M374.3,152.5h-30v-9.1c0-47.4-38.5-85.9-85.9-85.9s-85.9,38.5-85.9,85.9v9.1h-30v-9.1
				c0-63.9,52-115.9,115.9-115.9s115.9,52,115.9,115.9V152.5z"/>
		</g>
		<path class="st7" d="M275.8,204.5c-11.4-9.7-28.2-9.7-39.7,0c-12.7,10.8-28.8,17.1-45.5,17.8l-18.4,0.7l1.2,7.4
			c6.7,40.3,41.6,69.9,82.5,69.9c41.8-2.3,76.4-33.3,83.2-74.6l0.4-2.7l-18.4-0.7C304.6,221.6,288.6,215.4,275.8,204.5L275.8,204.5z
			"/>
		<path class="st4" d="M172.3,223h-27.4c-12.9,0-23.3-10.5-23.3-23.3v-54c0-12.9,10.5-23.3,23.3-23.3h27.4V223z"/>
		<path class="st4" d="M339.7,223h27.4c12.9,0,23.3-10.5,23.3-23.3v-54c0-12.9-10.5-23.3-23.3-23.3h-27.4V223z"/>
		<path class="st5" d="M337.2,106.8c-10.7-23-39.7-49.8-81.2-49.8c-41.5,0-72.1,25.3-81.9,49.8c-10.6,26.5-16.6,60.8-16.6,60.8
			c37.2,1.3,68.8-45.3,68.8-45.3s18.7,70.9,120,74.9C346.3,197.2,357.5,148.1,337.2,106.8z"/>
	</g>
</g>
</svg>
